<svg xmlns="http://www.w3.org/2000/svg" width="340.2" height="85.6" xmlns:xlink="http://www.w3.org/1999/xlink" viewBox="0 0 340.2 85.6"><defs><path id="a" d="M154.8.5h4.2v17.3h-4.2z"/></defs><clipPath id="b"><use xlink:href="#a" overflow="visible"/></clipPath><radialGradient id="c" cx="-103.15" cy="340.44" r="1" gradientTransform="matrix(168.6583 0 0 -168.6583 17424.422 57461.355)" gradientUnits="userSpaceOnUse"><stop offset="0" stop-color="#ED1C29"/><stop offset="0" stop-color="#ED1C29"/><stop offset=".64" stop-color="#6F368E"/><stop offset="1" stop-color="#6F368E"/></radialGradient><path fill="url(#c)" d="M154.8.5h4.2v17.3h-4.2z" clip-path="url(#b)"/><defs><path id="d" d="M173.8 17.8l-7-11.3h-.1l.1 11.3h-4V.5h4.7l7 11.3h.1L174.5.5h4v17.3z"/></defs><clipPath id="e"><use xlink:href="#d" overflow="visible"/></clipPath><radialGradient id="f" cx="-103.14" cy="340.45" r="1" gradientTransform="matrix(168.7197 0 0 -168.7197 17430.217 57482.898)" gradientUnits="userSpaceOnUse"><stop offset="0" stop-color="#ED1C29"/><stop offset="0" stop-color="#ED1C29"/><stop offset=".64" stop-color="#6F368E"/><stop offset="1" stop-color="#6F368E"/></radialGradient><path fill="url(#f)" d="M162.8.5h15.8v17.3h-15.8z" clip-path="url(#e)"/><defs><path id="g" d="M186.7 4v3.6h6.7v3.5h-6.7v6.7h-4.2V.5h11.4V4z"/></defs><clipPath id="h"><use xlink:href="#g" overflow="visible"/></clipPath><radialGradient id="i" cx="-103.14" cy="340.45" r="1" gradientTransform="matrix(168.6978 0 0 -168.6978 17427.78 57475.445)" gradientUnits="userSpaceOnUse"><stop offset="0" stop-color="#ED1C29"/><stop offset="0" stop-color="#ED1C29"/><stop offset=".64" stop-color="#6F368E"/><stop offset="1" stop-color="#6F368E"/></radialGradient><path fill="url(#i)" d="M182.5.5h11.4v17.3h-11.4z" clip-path="url(#h)"/><defs><path id="j" d="M203.1 14c-.6-.3-1.1-.6-1.6-1.1-.4-.5-.8-1-1-1.7-.2-.7-.4-1.4-.4-2.2 0-.8.1-1.5.4-2.1.2-.7.6-1.2 1-1.7s1-.8 1.6-1.1c.6-.3 1.3-.4 2-.4s1.4.1 2 .4c.6.3 1.1.6 1.6 1.1.4.5.8 1 1 1.7.2.7.4 1.4.4 2.1 0 .8-.1 1.5-.4 2.2-.2.7-.6 1.2-1 1.7s-1 .8-1.6 1.1c-.6.3-1.3.4-2 .4-.8.1-1.4-.1-2-.4M201.3.6c-1.1.4-2.1 1-3 1.8-.8.8-1.5 1.7-2 2.9-.5 1.1-.7 2.4-.7 3.8s.2 2.6.7 3.8c.5 1.1 1.1 2.1 2 2.9.8.8 1.8 1.4 3 1.9 1.2.4 2.4.7 3.8.7s2.6-.2 3.8-.7c1.2-.4 2.2-1.1 3-1.9.8-.8 1.5-1.8 2-2.9.5-1.1.7-2.4.7-3.8s-.2-2.6-.7-3.8c-.5-1.1-1.1-2.1-2-2.9-.8-.8-1.8-1.4-3-1.8-1.2-.4-2.4-.6-3.8-.6s-2.6.2-3.8.6"/></defs><clipPath id="k"><use xlink:href="#j" overflow="visible"/></clipPath><radialGradient id="l" cx="-103.14" cy="340.45" r="1" gradientTransform="matrix(168.7104 0 0 -168.7104 17428.916 57479.867)" gradientUnits="userSpaceOnUse"><stop offset="0" stop-color="#ED1C29"/><stop offset="0" stop-color="#ED1C29"/><stop offset=".64" stop-color="#6F368E"/><stop offset="1" stop-color="#6F368E"/></radialGradient><path fill="url(#l)" d="M195.6 0h18.9v18.3h-18.9z" clip-path="url(#k)"/><defs><path id="m" d="M222.3.6c-1.1.4-2.1 1-3 1.8-.9.8-1.5 1.8-2 2.9-.5 1.1-.7 2.4-.7 3.8s.2 2.6.7 3.7c.5 1.1 1.1 2.1 2 2.9.8.8 1.8 1.4 3 1.9 1.1.4 2.4.7 3.7.7 1.5 0 2.8-.3 3.9-.8s2.1-1.2 2.8-2.1l-2.9-2.7c-.4.5-.9.9-1.5 1.3-.6.3-1.4.5-2.2.5-.7 0-1.4-.1-2-.4-.6-.3-1.1-.6-1.6-1.1-.4-.5-.8-1-1-1.7-.2-.6-.4-1.4-.4-2.1 0-.8.1-1.5.4-2.1.2-.6.6-1.2 1-1.7s1-.8 1.6-1.1c.6-.3 1.3-.4 2-.4s1.3.1 2 .4c.6.3 1.2.7 1.5 1.2l2.8-2.8c-.7-.8-1.7-1.5-2.9-1.9-1.1-.6-2.3-.8-3.5-.8-1.4 0-2.6.2-3.7.6"/></defs><clipPath id="n"><use xlink:href="#m" overflow="visible"/></clipPath><radialGradient id="o" cx="-103.14" cy="340.45" r="1" gradientTransform="matrix(168.618 0 0 -168.618 17419.935 57448.105)" gradientUnits="userSpaceOnUse"><stop offset="0" stop-color="#ED1C29"/><stop offset="0" stop-color="#ED1C29"/><stop offset=".64" stop-color="#6F368E"/><stop offset="1" stop-color="#6F368E"/></radialGradient><path fill="url(#o)" d="M216.6 0h16.1v18.3h-16.1z" clip-path="url(#n)"/><defs><path id="p" d="M240.8 14c-.6-.3-1.1-.6-1.5-1.1-.4-.5-.8-1-1-1.7-.2-.7-.4-1.4-.4-2.2 0-.8.1-1.5.4-2.1.2-.7.6-1.2 1-1.7s1-.8 1.6-1.1c.6-.3 1.3-.4 2-.4s1.4.1 2 .4c.6.3 1.1.6 1.6 1.1.4.5.8 1 1 1.7.2.7.4 1.4.4 2.1 0 .8-.1 1.5-.4 2.2-.2.7-.6 1.2-1 1.7s-1 .8-1.6 1.1c-.6.3-1.3.4-2 .4-.8.1-1.5-.1-2.1-.4M239.1.6c-1.1.4-2.1 1-3 1.8-.8.8-1.5 1.7-2 2.9-.5 1.1-.7 2.4-.7 3.8s.2 2.6.7 3.8c.5 1.1 1.1 2.1 2 2.9.8.8 1.8 1.4 3 1.9 1.2.4 2.4.7 3.8.7s2.6-.2 3.8-.7c1.2-.4 2.2-1.1 3-1.9.8-.8 1.5-1.8 2-2.9.5-1.1.7-2.4.7-3.8s-.2-2.6-.7-3.8c-.5-1.1-1.1-2.1-2-2.9-.8-.8-1.8-1.4-3-1.8-1.2-.4-2.4-.6-3.8-.6s-2.7.2-3.8.6"/></defs><clipPath id="q"><use xlink:href="#p" overflow="visible"/></clipPath><radialGradient id="r" cx="-103.15" cy="340.44" r="1" gradientTransform="matrix(168.704 0 0 -168.704 17429.22 57476.977)" gradientUnits="userSpaceOnUse"><stop offset="0" stop-color="#ED1C29"/><stop offset="0" stop-color="#ED1C29"/><stop offset=".64" stop-color="#6F368E"/><stop offset="1" stop-color="#6F368E"/></radialGradient><path fill="url(#r)" d="M233.4 0h18.9v18.3h-18.9z" clip-path="url(#q)"/><defs><path id="s" d="M268.4.5l-3.8 11.1h-.1l-4-11.1h-5.9v17.3h3.9l-.1-12.3h.1l4.4 12.3h2.9l4.5-12.3h.1l-.1 12.3h4.1V.5z"/></defs><clipPath id="t"><use xlink:href="#s" overflow="visible"/></clipPath><radialGradient id="u" cx="-103.14" cy="340.45" r="1" gradientTransform="matrix(168.71 0 0 -168.71 17429.354 57479.484)" gradientUnits="userSpaceOnUse"><stop offset="0" stop-color="#ED1C29"/><stop offset="0" stop-color="#ED1C29"/><stop offset=".64" stop-color="#6F368E"/><stop offset="1" stop-color="#6F368E"/></radialGradient><path fill="url(#u)" d="M254.6.5h19.8v17.3h-19.8z" clip-path="url(#t)"/><defs><path id="v" d="M292 .5l-3.8 11.1h-.1L284.2.5h-6v17.3h3.9L282 5.5h.1l4.4 12.3h2.9l4.5-12.3h.1l-.1 12.3h4.1V.5z"/></defs><clipPath id="w"><use xlink:href="#v" overflow="visible"/></clipPath><radialGradient id="x" cx="-103.15" cy="340.44" r="1" gradientTransform="matrix(168.694 0 0 -168.694 17428.08 57473.535)" gradientUnits="userSpaceOnUse"><stop offset="0" stop-color="#ED1C29"/><stop offset="0" stop-color="#ED1C29"/><stop offset=".64" stop-color="#6F368E"/><stop offset="1" stop-color="#6F368E"/></radialGradient><path fill="url(#x)" d="M278.2.5H298v17.3h-19.8z" clip-path="url(#w)"/><defs><path id="y" d="M168.6 22.9L164.8 34h-.1l-3.9-11.1h-6v17.3h4l-.1-12.2 4.4 12.2h3l4.5-12.2-.1 12.2h4.2V22.9z"/></defs><clipPath id="z"><use xlink:href="#y" overflow="visible"/></clipPath><radialGradient id="A" cx="-103.15" cy="340.45" r="1" gradientTransform="matrix(168.694 0 0 -168.694 17427.922 57473.79)" gradientUnits="userSpaceOnUse"><stop offset="0" stop-color="#ED1C29"/><stop offset="0" stop-color="#ED1C29"/><stop offset=".64" stop-color="#6F368E"/><stop offset="1" stop-color="#6F368E"/></radialGradient><path fill="url(#A)" d="M154.8 22.9h19.8v17.3h-19.8z" clip-path="url(#z)"/><defs><path id="B" d="M177.8 22.9v17.3h12.1v-3.5h-8.1v-3.6h7.2v-3.4h-7.2v-3.3h7.6v-3.5z"/></defs><clipPath id="C"><use xlink:href="#B" overflow="visible"/></clipPath><radialGradient id="D" cx="-103.15" cy="340.45" r="1" gradientTransform="matrix(168.65 0 0 -168.65 17423.31 57458.19)" gradientUnits="userSpaceOnUse"><stop offset="0" stop-color="#ED1C29"/><stop offset="0" stop-color="#ED1C29"/><stop offset=".64" stop-color="#6F368E"/><stop offset="1" stop-color="#6F368E"/></radialGradient><path fill="url(#D)" d="M177.8 22.9h12.1v17.3h-12.1z" clip-path="url(#C)"/><g><defs><path id="E" d="M196.5 26.5h2.1c.7 0 1.4.1 2.1.2.7.2 1.3.4 1.8.8s1 .9 1.3 1.5c.3.6.5 1.5.5 2.4 0 1-.2 1.8-.5 2.4-.3.7-.7 1.2-1.3 1.6-.5.4-1.1.7-1.8.8-.7.2-1.4.3-2.2.3h-2v-10zm-4.1-3.6v17.3h6.5c1.2 0 2.4-.2 3.5-.5 1.2-.3 2.2-.9 3.1-1.6.9-.7 1.7-1.6 2.2-2.7.6-1.1.8-2.4.8-3.9 0-1.6-.3-3-.9-4.1-.6-1.1-1.3-2-2.3-2.7-.9-.7-2-1.1-3.2-1.4-1.2-.3-2.4-.4-3.6-.4h-6.1z"/></defs><clipPath id="F"><use xlink:href="#E" overflow="visible"/></clipPath><radialGradient id="G" cx="-103.14" cy="340.45" r="1" gradientTransform="matrix(168.707 0 0 -168.707 17428.898 57478.34)" gradientUnits="userSpaceOnUse"><stop offset="0" stop-color="#ED1C29"/><stop offset="0" stop-color="#ED1C29"/><stop offset=".64" stop-color="#6F368E"/><stop offset="1" stop-color="#6F368E"/></radialGradient><path fill="url(#G)" d="M192.4 22.9h16.2v17.3h-16.2z" clip-path="url(#F)"/></g><g><defs><path id="H" d="M210.9 22.9h4.2v17.3h-4.2z"/></defs><clipPath id="I"><use xlink:href="#H" overflow="visible"/></clipPath><radialGradient id="J" cx="-103.14" cy="340.45" r="1" gradientTransform="matrix(168.565 0 0 -168.565 17414.703 57430.074)" gradientUnits="userSpaceOnUse"><stop offset="0" stop-color="#ED1C29"/><stop offset="0" stop-color="#ED1C29"/><stop offset=".64" stop-color="#6F368E"/><stop offset="1" stop-color="#6F368E"/></radialGradient><path fill="url(#J)" d="M210.9 22.9h4.2v17.3h-4.2z" clip-path="url(#I)"/></g><g><defs><path id="K" d="M226.2 27.5l2.2 6H224l2.2-6zm-1.9-4.6L217 40.2h4.6l1.3-3.4h6.7l1.3 3.4h4.7l-7.2-17.3h-4.1z"/></defs><clipPath id="L"><use xlink:href="#K" overflow="visible"/></clipPath><radialGradient id="M" cx="-103.15" cy="340.45" r="1" gradientTransform="matrix(168.704 0 0 -168.704 17428.846 57477.086)" gradientUnits="userSpaceOnUse"><stop offset="0" stop-color="#ED1C29"/><stop offset="0" stop-color="#ED1C29"/><stop offset=".64" stop-color="#6F368E"/><stop offset="1" stop-color="#6F368E"/></radialGradient><path fill="url(#M)" d="M217 22.9h18.5v17.3H217z" clip-path="url(#L)"/></g><g><defs><path id="N" d="M158.9 48.9h2.1c.7 0 1.4.1 2.1.2.7.2 1.3.4 1.8.8s1 .9 1.3 1.5c.3.6.5 1.5.5 2.4 0 1-.1 1.8-.5 2.4-.3.7-.7 1.2-1.3 1.6-.5.4-1.1.7-1.8.8-.7.2-1.4.3-2.2.3h-2v-10zm-4.1-3.5v17.3h6.5c1.2 0 2.4-.2 3.5-.5 1.2-.3 2.2-.9 3.1-1.6.9-.7 1.7-1.6 2.2-2.7.6-1.1.8-2.4.8-3.9 0-1.6-.3-3-.9-4.1-.6-1.1-1.3-2-2.3-2.7-.9-.7-2-1.1-3.2-1.4-1.2-.3-2.4-.4-3.6-.4h-6.1z"/></defs><clipPath id="O"><use xlink:href="#N" overflow="visible"/></clipPath><radialGradient id="P" cx="-103.15" cy="340.45" r="1" gradientTransform="matrix(168.667 0 0 -168.667 17425.537 57464.234)" gradientUnits="userSpaceOnUse"><stop offset="0" stop-color="#ED1C29"/><stop offset="0" stop-color="#ED1C29"/><stop offset=".64" stop-color="#6F368E"/><stop offset="1" stop-color="#6F368E"/></radialGradient><path fill="url(#P)" d="M154.8 45.4H171v17.3h-16.2z" clip-path="url(#O)"/></g><g><defs><path id="Q" d="M173.4 45.4v17.3h12.1v-3.6h-8v-3.6h7.2v-3.3h-7.2v-3.3h7.6v-3.5z"/></defs><clipPath id="R"><use xlink:href="#Q" overflow="visible"/></clipPath><radialGradient id="S" cx="-103.15" cy="340.44" r="1" gradientTransform="matrix(168.733 0 0 -168.733 17431.973 57486.71)" gradientUnits="userSpaceOnUse"><stop offset="0" stop-color="#ED1C29"/><stop offset="0" stop-color="#ED1C29"/><stop offset=".64" stop-color="#6F368E"/><stop offset="1" stop-color="#6F368E"/></radialGradient><path fill="url(#S)" d="M173.4 45.4h12.1v17.3h-12.1z" clip-path="url(#R)"/></g><g><defs><path id="T" d="M199.9 45.4l-4 12.3h-.1l-4-12.3h-4.7l6.6 17.3h4.1l6.7-17.3z"/></defs><clipPath id="U"><use xlink:href="#T" overflow="visible"/></clipPath><radialGradient id="V" cx="-103.14" cy="340.45" r="1" gradientTransform="matrix(168.713 0 0 -168.713 17429.56 57480.47)" gradientUnits="userSpaceOnUse"><stop offset="0" stop-color="#ED1C29"/><stop offset="0" stop-color="#ED1C29"/><stop offset=".64" stop-color="#6F368E"/><stop offset="1" stop-color="#6F368E"/></radialGradient><path fill="url(#V)" d="M187.1 45.4h17.4v17.3h-17.4z" clip-path="url(#U)"/></g><g><defs><path id="W" d="M206.6 45.4v17.3h12.1v-3.6h-8v-3.6h7.2v-3.3h-7.2v-3.3h7.6v-3.5z"/></defs><clipPath id="X"><use xlink:href="#W" overflow="visible"/></clipPath><radialGradient id="Y" cx="-103.14" cy="340.45" r="1" gradientTransform="matrix(168.703 0 0 -168.703 17428.45 57477.164)" gradientUnits="userSpaceOnUse"><stop offset="0" stop-color="#ED1C29"/><stop offset="0" stop-color="#ED1C29"/><stop offset=".64" stop-color="#6F368E"/><stop offset="1" stop-color="#6F368E"/></radialGradient><path fill="url(#Y)" d="M206.6 45.4h12.1v17.3h-12.1z" clip-path="url(#X)"/></g><g><defs><path id="Z" d="M221.5 45.4v17.3h10.9V59h-6.7V45.4z"/></defs><clipPath id="aa"><use xlink:href="#Z" overflow="visible"/></clipPath><radialGradient id="ab" cx="-103.15" cy="340.44" r="1" gradientTransform="matrix(168.732 0 0 -168.732 17431.945 57486.164)" gradientUnits="userSpaceOnUse"><stop offset="0" stop-color="#ED1C29"/><stop offset="0" stop-color="#ED1C29"/><stop offset=".64" stop-color="#6F368E"/><stop offset="1" stop-color="#6F368E"/></radialGradient><path fill="url(#ab)" d="M221.5 45.4h10.9v17.3h-10.9z" clip-path="url(#aa)"/></g><g><defs><path id="ac" d="M241.2 58.9c-.6-.3-1.1-.6-1.6-1.1-.4-.5-.8-1-1-1.7-.2-.7-.4-1.4-.4-2.2 0-.8.1-1.5.4-2.1.2-.6.6-1.2 1-1.7s1-.8 1.6-1.1c.6-.3 1.3-.4 2-.4s1.4.1 2 .4c.6.3 1.1.6 1.6 1.1.4.5.8 1 1 1.7.2.7.4 1.4.4 2.1 0 .8-.1 1.5-.4 2.2-.2.7-.6 1.2-1 1.7s-1 .8-1.6 1.1c-.6.3-1.3.4-2 .4-.8 0-1.4-.1-2-.4m-1.8-13.4c-1.2.4-2.1 1-3 1.8-.8.8-1.5 1.7-2 2.9-.5 1.1-.7 2.4-.7 3.8s.2 2.6.7 3.8c.5 1.1 1.1 2.1 2 2.9.8.8 1.8 1.4 3 1.9 1.1.4 2.4.7 3.8.7s2.6-.2 3.8-.7c1.2-.4 2.2-1.1 3-1.9.8-.8 1.5-1.8 2-2.9.5-1.1.7-2.4.7-3.8s-.2-2.6-.7-3.8c-.5-1.1-1.1-2.1-2-2.9-.8-.8-1.8-1.4-3-1.8-1.2-.4-2.4-.6-3.8-.6s-2.6.2-3.8.6"/></defs><clipPath id="ad"><use xlink:href="#ac" overflow="visible"/></clipPath><radialGradient id="ae" cx="-103.14" cy="340.45" r="1" gradientTransform="matrix(168.723 0 0 -168.723 17430.61 57483.926)" gradientUnits="userSpaceOnUse"><stop offset="0" stop-color="#ED1C29"/><stop offset="0" stop-color="#ED1C29"/><stop offset=".64" stop-color="#6F368E"/><stop offset="1" stop-color="#6F368E"/></radialGradient><path fill="url(#ae)" d="M233.7 44.9h18.9v18.3h-18.9z" clip-path="url(#ad)"/></g><g><defs><path id="af" d="M259.2 48.7h1.8c.4 0 .7 0 1.1.1.3 0 .7.1.9.3.3.1.5.3.7.6.2.3.2.6.2 1s-.1.7-.2 1c-.2.3-.4.5-.7.7-.3.2-.6.3-1 .3-.4.1-.7.1-1.1.1h-1.8v-4.1zm-4.2-3.3v17.3h4.2v-6.5h2.1c.9 0 1.8-.1 2.6-.3.8-.2 1.6-.5 2.2-.9.6-.4 1.1-1 1.5-1.7.4-.7.6-1.5.6-2.6 0-1-.2-1.8-.5-2.5s-.8-1.2-1.4-1.6c-.6-.4-1.3-.7-2.2-.9-.8-.2-1.7-.3-2.7-.3H255z"/></defs><clipPath id="ag"><use xlink:href="#af" overflow="visible"/></clipPath><radialGradient id="ah" cx="-103.14" cy="340.45" r="1" gradientTransform="matrix(168.68 0 0 -168.68 17426.05 57468.746)" gradientUnits="userSpaceOnUse"><stop offset="0" stop-color="#ED1C29"/><stop offset="0" stop-color="#ED1C29"/><stop offset=".64" stop-color="#6F368E"/><stop offset="1" stop-color="#6F368E"/></radialGradient><path fill="url(#ah)" d="M255 45.4h13.2v17.3H255z" clip-path="url(#ag)"/></g><g><defs><path id="ai" d="M283.8 45.4L280 56.5h-.1L276 45.4h-6v17.3h4l-.1-12.3 4.4 12.3h3l4.5-12.3-.1 12.3h4.2V45.4z"/></defs><clipPath id="aj"><use xlink:href="#ai" overflow="visible"/></clipPath><radialGradient id="ak" cx="-103.15" cy="340.44" r="1" gradientTransform="matrix(168.71 0 0 -168.71 17429.633 57479.105)" gradientUnits="userSpaceOnUse"><stop offset="0" stop-color="#ED1C29"/><stop offset="0" stop-color="#ED1C29"/><stop offset=".64" stop-color="#6F368E"/><stop offset="1" stop-color="#6F368E"/></radialGradient><path fill="url(#ak)" d="M270 45.4h19.8v17.3H270z" clip-path="url(#aj)"/></g><g><defs><path id="al" d="M293.5 45.4v17.3h12.1v-3.6h-8v-3.6h7.2v-3.3h-7.2v-3.3h7.6v-3.5z"/></defs><clipPath id="am"><use xlink:href="#al" overflow="visible"/></clipPath><radialGradient id="an" cx="-103.15" cy="340.44" r="1" gradientTransform="matrix(168.73 0 0 -168.73 17431.732 57485.984)" gradientUnits="userSpaceOnUse"><stop offset="0" stop-color="#ED1C29"/><stop offset="0" stop-color="#ED1C29"/><stop offset=".64" stop-color="#6F368E"/><stop offset="1" stop-color="#6F368E"/></radialGradient><path fill="url(#an)" d="M293.5 45.4h12.1v17.3h-12.1z" clip-path="url(#am)"/></g><g><defs><path id="ao" d="M320.1 45.4l.1 11.3h-.1l-7-11.3h-4.7v17.3h4l-.1-11.3h.1l7 11.3h4.7V45.4z"/></defs><clipPath id="ap"><use xlink:href="#ao" overflow="visible"/></clipPath><radialGradient id="aq" cx="-103.14" cy="340.45" r="1" gradientTransform="matrix(168.71 0 0 -168.71 17429.443 57479.648)" gradientUnits="userSpaceOnUse"><stop offset="0" stop-color="#ED1C29"/><stop offset="0" stop-color="#ED1C29"/><stop offset=".64" stop-color="#6F368E"/><stop offset="1" stop-color="#6F368E"/></radialGradient><path fill="url(#aq)" d="M308.4 45.4h15.8v17.3h-15.8z" clip-path="url(#ap)"/></g><g><defs><path id="ar" d="M326.2 45.4v3.5h4.9v13.8h4.2V48.9h4.9v-3.5z"/></defs><clipPath id="as"><use xlink:href="#ar" overflow="visible"/></clipPath><radialGradient id="at" cx="-103.14" cy="340.45" r="1" gradientTransform="matrix(168.726 0 0 -168.726 17430.72 57484.777)" gradientUnits="userSpaceOnUse"><stop offset="0" stop-color="#ED1C29"/><stop offset="0" stop-color="#ED1C29"/><stop offset=".64" stop-color="#6F368E"/><stop offset="1" stop-color="#6F368E"/></radialGradient><path fill="url(#at)" d="M326.2 45.4h14v17.3h-14z" clip-path="url(#as)"/></g><g><defs><path id="au" d="M164.1 72.4l2.2 6h-4.4l2.2-6zm-2-4.6l-7.3 17.3h4.5l1.3-3.4h6.7l1.3 3.4h4.7l-7.2-17.3h-4z"/></defs><clipPath id="av"><use xlink:href="#au" overflow="visible"/></clipPath><radialGradient id="aw" cx="-103.15" cy="340.45" r="1" gradientTransform="matrix(168.675 0 0 -168.675 17425.912 57467.074)" gradientUnits="userSpaceOnUse"><stop offset="0" stop-color="#ED1C29"/><stop offset="0" stop-color="#ED1C29"/><stop offset=".64" stop-color="#6F368E"/><stop offset="1" stop-color="#6F368E"/></radialGradient><path fill="url(#aw)" d="M154.8 67.8h18.5v17.3h-18.5z" clip-path="url(#av)"/></g><g><defs><path id="ax" d="M184.7 67.8v10.5c0 .5-.1.9-.2 1.3s-.3.8-.6 1.1c-.3.3-.6.6-1 .8-.4.2-.9.3-1.5.3s-1.1-.1-1.5-.3c-.4-.2-.8-.5-1-.8-.3-.3-.4-.7-.6-1.1-.1-.4-.2-.9-.2-1.3V67.8H174v10.8c0 1 .2 2 .5 2.9.3.9.8 1.6 1.5 2.2.6.6 1.4 1.1 2.3 1.4.9.3 1.9.5 3.1.5 1.1 0 2.1-.2 3.1-.5.9-.3 1.7-.8 2.4-1.4.7-.6 1.2-1.3 1.5-2.2.3-.9.5-1.8.5-2.9V67.8h-4.2z"/></defs><clipPath id="ay"><use xlink:href="#ax" overflow="visible"/></clipPath><radialGradient id="az" cx="-103.15" cy="340.45" r="1" gradientTransform="matrix(168.713 0 0 -168.713 17429.867 57480.246)" gradientUnits="userSpaceOnUse"><stop offset="0" stop-color="#ED1C29"/><stop offset="0" stop-color="#ED1C29"/><stop offset=".64" stop-color="#6F368E"/><stop offset="1" stop-color="#6F368E"/></radialGradient><path fill="url(#az)" d="M174 67.8h14.9v17.8H174z" clip-path="url(#ay)"/></g><g><defs><path id="aA" d="M190.9 67.8v3.6h4.9v13.7h4.2V71.4h4.9v-3.6z"/></defs><clipPath id="aB"><use xlink:href="#aA" overflow="visible"/></clipPath><radialGradient id="aC" cx="-103.15" cy="340.45" r="1" gradientTransform="matrix(168.68 0 0 -168.68 17426.48 57469.484)" gradientUnits="userSpaceOnUse"><stop offset="0" stop-color="#ED1C29"/><stop offset="0" stop-color="#ED1C29"/><stop offset=".64" stop-color="#6F368E"/><stop offset="1" stop-color="#6F368E"/></radialGradient><path fill="url(#aC)" d="M190.9 67.8h14v17.3h-14z" clip-path="url(#aB)"/></g><g><defs><path id="aD" d="M217.7 67.8v6.6h-6.8v-6.6h-4.1v17.3h4.1v-7.2h6.8v7.2h4.2V67.8z"/></defs><clipPath id="aE"><use xlink:href="#aD" overflow="visible"/></clipPath><radialGradient id="aF" cx="-103.15" cy="340.45" r="1" gradientTransform="matrix(168.674 0 0 -168.674 17425.856 57466.906)" gradientUnits="userSpaceOnUse"><stop offset="0" stop-color="#ED1C29"/><stop offset="0" stop-color="#ED1C29"/><stop offset=".64" stop-color="#6F368E"/><stop offset="1" stop-color="#6F368E"/></radialGradient><path fill="url(#aF)" d="M206.8 67.8h15.1v17.3h-15.1z" clip-path="url(#aE)"/></g><g><defs><path id="aG" d="M231.3 81.4c-.6-.3-1.1-.6-1.6-1.1-.4-.5-.8-1-1-1.7-.2-.7-.4-1.4-.4-2.2 0-.7.1-1.5.4-2.1.2-.7.6-1.2 1-1.7s1-.8 1.6-1.1c.6-.3 1.3-.4 2-.4s1.4.1 2 .4c.6.3 1.1.6 1.6 1.1.4.5.8 1 1 1.7.2.7.4 1.4.4 2.1 0 .8-.1 1.5-.4 2.2-.2.7-.6 1.2-1 1.7s-1 .8-1.6 1.1c-.6.3-1.3.4-2 .4s-1.4-.1-2-.4M229.6 68c-1.2.4-2.1 1-3 1.8-.8.8-1.5 1.7-2 2.9-.5 1.1-.7 2.4-.7 3.8s.2 2.6.7 3.8c.5 1.1 1.1 2.1 2 2.9.8.8 1.8 1.4 3 1.9 1.1.4 2.4.7 3.8.7s2.6-.2 3.8-.7c1.2-.4 2.2-1.1 3-1.9.8-.8 1.5-1.8 2-2.9.5-1.1.7-2.4.7-3.8s-.2-2.6-.7-3.8c-.5-1.1-1.1-2.1-2-2.9-.8-.8-1.8-1.4-3-1.8-1.2-.4-2.4-.6-3.8-.6-1.4-.1-2.7.2-3.8.6"/></defs><clipPath id="aH"><use xlink:href="#aG" overflow="visible"/></clipPath><radialGradient id="aI" cx="-103.14" cy="340.45" r="1" gradientTransform="matrix(168.705 0 0 -168.705 17428.873 57477.633)" gradientUnits="userSpaceOnUse"><stop offset="0" stop-color="#ED1C29"/><stop offset="0" stop-color="#ED1C29"/><stop offset=".64" stop-color="#6F368E"/><stop offset="1" stop-color="#6F368E"/></radialGradient><path fill="url(#aI)" d="M223.9 67.3h18.9v18.3h-18.9z" clip-path="url(#aH)"/></g><g><defs><path id="aJ" d="M249.1 71.2h2.2c.3 0 .6 0 1 .1.3.1.6.1.9.3.3.1.5.3.7.6.2.2.3.6.3 1s-.1.8-.3 1.1c-.2.3-.4.5-.7.6-.3.1-.6.2-1 .3-.4.1-.7.1-1.1.1h-2v-4.1zm-4-3.4v17.3h4.1v-6.9h1.4l3.8 6.9h4.9l-4.5-7.4c1.1-.3 2-.9 2.6-1.7.6-.8 1-1.8 1-3 0-1-.2-1.8-.6-2.5-.4-.7-.9-1.2-1.5-1.6-.6-.4-1.3-.7-2.1-.9-.8-.2-1.6-.3-2.4-.3h-6.7z"/></defs><clipPath id="aK"><use xlink:href="#aJ" overflow="visible"/></clipPath><radialGradient id="aL" cx="-103.15" cy="340.44" r="1" gradientTransform="matrix(168.663 0 0 -168.663 17424.996 57462.94)" gradientUnits="userSpaceOnUse"><stop offset="0" stop-color="#ED1C29"/><stop offset="0" stop-color="#ED1C29"/><stop offset=".64" stop-color="#6F368E"/><stop offset="1" stop-color="#6F368E"/></radialGradient><path fill="url(#aL)" d="M245.1 67.8h14.2v17.3h-14.2z" clip-path="url(#aK)"/></g><g><defs><path id="aM" d="M261.3 67.8h4.2v17.3h-4.2z"/></defs><clipPath id="aN"><use xlink:href="#aM" overflow="visible"/></clipPath><radialGradient id="aO" cx="-103.15" cy="340.45" r="1" gradientTransform="matrix(168.647 0 0 -168.647 17423.068 57457.48)" gradientUnits="userSpaceOnUse"><stop offset="0" stop-color="#ED1C29"/><stop offset="0" stop-color="#ED1C29"/><stop offset=".64" stop-color="#6F368E"/><stop offset="1" stop-color="#6F368E"/></radialGradient><path fill="url(#aO)" d="M261.3 67.8h4.2v17.3h-4.2z" clip-path="url(#aN)"/></g><g><defs><path id="aP" d="M267.4 67.8v3.6h4.9v13.7h4.2V71.4h4.9v-3.6z"/></defs><clipPath id="aQ"><use xlink:href="#aP" overflow="visible"/></clipPath><radialGradient id="aR" cx="-103.16" cy="340.44" r="1.01" gradientTransform="matrix(168.704 0 0 -168.704 17429.256 57476.707)" gradientUnits="userSpaceOnUse"><stop offset="0" stop-color="#ED1C29"/><stop offset="0" stop-color="#ED1C29"/><stop offset=".64" stop-color="#6F368E"/><stop offset="1" stop-color="#6F368E"/></radialGradient><path fill="url(#aR)" d="M267.4 67.8h14v17.3h-14z" clip-path="url(#aQ)"/></g><g><defs><path id="aS" d="M295.2 67.8l-3.7 6.4-3.7-6.4h-5.1l6.5 10v7.3h4.2v-7.3l6.7-10z"/></defs><clipPath id="aT"><use xlink:href="#aS" overflow="visible"/></clipPath><radialGradient id="aU" cx="-103.14" cy="340.45" r="1" gradientTransform="matrix(168.686 0 0 -168.686 17427.018 57471.2)" gradientUnits="userSpaceOnUse"><stop offset="0" stop-color="#ED1C29"/><stop offset="0" stop-color="#ED1C29"/><stop offset=".64" stop-color="#6F368E"/><stop offset="1" stop-color="#6F368E"/></radialGradient><path fill="url(#aU)" d="M282.7 67.8h17.4v17.3h-17.4z" clip-path="url(#aT)"/></g><g><defs><path id="aV" d="M39.9 10.6v64.7l18.7 9.8V.5z"/></defs><clipPath id="aW"><use xlink:href="#aV" overflow="visible"/></clipPath><radialGradient id="aX" cx="-103.15" cy="340.45" r="1" gradientTransform="matrix(168.687 0 0 -168.687 17427.14 57471.36)" gradientUnits="userSpaceOnUse"><stop offset="0" stop-color="#ED1C29"/><stop offset="0" stop-color="#ED1C29"/><stop offset=".64" stop-color="#6F368E"/><stop offset="1" stop-color="#6F368E"/></radialGradient><path fill="url(#aX)" d="M39.9.5h18.7v84.7H39.9z" clip-path="url(#aW)"/></g><g><defs><path id="aY" d="M0 85.1l18.7-9.8V10.6L0 .5z"/></defs><clipPath id="aZ"><use xlink:href="#aY" overflow="visible"/></clipPath><radialGradient id="ba" cx="-103.14" cy="340.45" r="1" gradientTransform="matrix(168.694 0 0 -168.694 17427.615 57473.887)" gradientUnits="userSpaceOnUse"><stop offset="0" stop-color="#ED1C29"/><stop offset="0" stop-color="#ED1C29"/><stop offset=".64" stop-color="#6F368E"/><stop offset="1" stop-color="#6F368E"/></radialGradient><path fill="url(#ba)" d="M0 .5h18.7v84.7H0z" clip-path="url(#aZ)"/></g><g><defs><path id="bb" d="M79.8 85.1h21.7L79.8 30.8z"/></defs><clipPath id="bc"><use xlink:href="#bb" overflow="visible"/></clipPath><radialGradient id="bd" cx="-103.15" cy="340.45" r="1" gradientTransform="matrix(168.71 0 0 -168.71 17429.445 57479.223)" gradientUnits="userSpaceOnUse"><stop offset="0" stop-color="#ED1C29"/><stop offset="0" stop-color="#ED1C29"/><stop offset=".64" stop-color="#6F368E"/><stop offset="1" stop-color="#6F368E"/></radialGradient><path fill="url(#bd)" d="M79.8 30.8h21.7v54.4H79.8z" clip-path="url(#bc)"/></g><g><defs><path id="be" d="M111.8 85.1h21.7V30.8z"/></defs><clipPath id="bf"><use xlink:href="#be" overflow="visible"/></clipPath><radialGradient id="bg" cx="-103.15" cy="340.44" r="1" gradientTransform="matrix(168.698 0 0 -168.698 17428.654 57474.715)" gradientUnits="userSpaceOnUse"><stop offset="0" stop-color="#ED1C29"/><stop offset="0" stop-color="#ED1C29"/><stop offset=".64" stop-color="#6F368E"/><stop offset="1" stop-color="#6F368E"/></radialGradient><path fill="url(#bg)" d="M111.8 30.8h21.7v54.4h-21.7z" clip-path="url(#bf)"/></g><g><defs><path id="bh" d="M87.8.5l18.9 42.3L125.6.5z"/></defs><clipPath id="bi"><use xlink:href="#bh" overflow="visible"/></clipPath><radialGradient id="bj" cx="-103.15" cy="340.44" r="1" gradientTransform="matrix(168.71 0 0 -168.71 17429.602 57478.434)" gradientUnits="userSpaceOnUse"><stop offset="0" stop-color="#ED1C29"/><stop offset="0" stop-color="#ED1C29"/><stop offset=".64" stop-color="#6F368E"/><stop offset="1" stop-color="#6F368E"/></radialGradient><path fill="url(#bj)" d="M87.8.5h37.8v42.3H87.8z" clip-path="url(#bi)"/></g></svg>